<svg width="600" height="300" viewBox="0 0 600 300" fill="none" xmlns="http://www.w3.org/2000/svg">
<rect width="600" height="300" fill="white"/>
<path fill-rule="evenodd" clip-rule="evenodd" d="M149.291 231.275C150.278 232.955 151.569 234.253 153.239 235.245C154.91 236.238 156.656 236.696 158.782 236.772C160.681 236.772 162.427 236.314 164.022 235.322C165.541 234.329 166.756 233.031 167.667 231.351C168.502 229.672 168.958 227.839 168.958 225.854C168.958 225.549 168.806 225.32 168.578 225.167C168.274 225.014 167.895 224.938 167.439 224.938H161.06C160.909 224.938 160.833 224.938 160.681 225.091C160.605 225.167 160.529 225.32 160.529 225.472V227.687C160.529 227.839 160.605 227.992 160.681 228.068C160.757 228.145 160.909 228.221 161.06 228.221H164.933C164.402 229.595 163.566 230.664 162.503 231.504C161.44 232.344 160.149 232.726 158.706 232.726C157.416 232.726 156.277 232.42 155.213 231.81C154.074 231.122 153.239 230.283 152.632 229.214C152.024 228.145 151.72 226.923 151.72 225.702C151.72 224.404 151.948 223.335 152.632 222.189C153.315 221.044 154.15 220.204 155.213 219.594C156.277 218.983 157.491 218.677 158.706 218.677H159.466C159.845 218.677 159.997 218.525 160.073 218.219L160.529 215.623C160.605 215.471 160.529 215.318 160.453 215.165C160.377 215.013 160.225 214.936 160.073 214.936C159.618 214.86 159.162 214.86 158.707 214.86H158.706C156.732 214.86 154.91 215.318 153.239 216.311C151.569 217.303 150.278 218.601 149.291 220.281C148.303 221.96 147.848 223.793 147.848 225.778C147.848 227.763 148.303 229.595 149.291 231.275ZM133.496 235.856C133.496 235.933 133.572 236.085 133.724 236.162C133.749 236.187 133.783 236.213 133.817 236.238L133.817 236.238C133.884 236.289 133.952 236.34 133.952 236.391H136.989C137.217 236.391 137.369 236.238 137.369 236.009V235.933L131.901 215.776C131.878 215.753 131.855 215.723 131.83 215.69C131.773 215.615 131.704 215.524 131.598 215.471C131.557 215.451 131.522 215.43 131.489 215.411C131.4 215.359 131.329 215.318 131.218 215.318H124.839C124.728 215.318 124.658 215.359 124.568 215.411C124.536 215.43 124.5 215.451 124.46 215.471L124.46 215.471C124.384 215.547 124.308 215.624 124.232 215.776L122.334 222.724C122.334 222.877 122.334 222.953 122.41 223.106C122.485 223.259 122.561 223.335 122.713 223.335L125.523 224.022C125.675 224.099 125.827 224.099 125.903 224.022C125.978 223.946 126.054 223.869 126.13 223.717L127.269 219.67C127.345 219.518 127.421 219.441 127.573 219.289L127.573 219.288L127.573 219.288C127.725 219.212 127.877 219.136 128.029 219.136H128.257C128.484 219.136 128.636 219.212 128.788 219.288L128.788 219.288C128.94 219.365 129.016 219.518 129.092 219.67L130.762 225.778C130.838 225.931 130.762 226.084 130.686 226.236L130.686 226.236C130.535 226.389 130.383 226.465 130.231 226.465H126.662C126.51 226.465 126.358 226.542 126.282 226.618C126.206 226.694 126.13 226.771 126.13 226.923V229.214C126.13 229.29 126.206 229.443 126.282 229.519C126.323 229.54 126.358 229.56 126.391 229.579C126.48 229.631 126.551 229.672 126.662 229.672H131.142H131.142C131.37 229.672 131.522 229.672 131.674 229.825C131.825 229.977 131.901 230.13 131.977 230.283L131.977 230.283L133.496 235.856ZM181.334 236.162C181.258 236.085 181.182 235.933 181.182 235.78V215.853C181.182 215.741 181.223 215.67 181.274 215.58C181.293 215.547 181.314 215.512 181.334 215.471C181.41 215.394 181.562 215.318 181.714 215.318H187.94C189.155 215.318 190.294 215.623 191.357 216.234C192.421 216.845 193.256 217.609 193.863 218.677C194.471 219.67 194.775 220.815 194.775 222.037C194.775 223.106 194.547 224.022 194.091 224.938C193.635 225.854 192.952 226.618 192.117 227.305C191.965 227.381 191.965 227.534 191.965 227.687V227.839V227.916L195.458 235.703C195.534 235.856 195.534 236.009 195.534 236.085C195.534 236.314 195.382 236.391 195.154 236.391H192.496C192.269 236.391 192.117 236.391 192.041 236.314C192.018 236.291 191.988 236.268 191.955 236.243C191.88 236.185 191.79 236.115 191.737 236.009L188.624 228.985C188.548 228.832 188.472 228.756 188.396 228.756C188.32 228.679 188.092 228.679 187.789 228.679H185.435C185.131 228.679 184.903 228.756 184.827 228.832C184.751 228.908 184.675 229.061 184.675 229.29V235.856C184.675 235.968 184.635 236.039 184.583 236.129C184.564 236.162 184.544 236.197 184.523 236.238C184.447 236.314 184.296 236.391 184.144 236.391H181.79C181.748 236.377 181.711 236.365 181.678 236.355L181.678 236.355C181.531 236.309 181.458 236.286 181.334 236.162ZM188.016 224.785C188.776 224.785 189.459 224.48 189.991 223.946C190.522 223.411 190.826 222.724 190.826 221.961C190.826 221.197 190.522 220.51 189.991 219.975C189.459 219.441 188.776 219.136 188.016 219.136H185.207C184.827 219.136 184.675 219.365 184.675 219.746V224.251C184.675 224.363 184.716 224.434 184.767 224.524C184.786 224.556 184.807 224.592 184.827 224.633L184.827 224.633C184.903 224.709 184.979 224.785 185.131 224.785H188.016ZM207.759 229.366C208.215 230.664 208.898 231.886 209.885 233.031C210.796 234.1 212.011 235.016 213.378 235.551C214.745 236.161 216.188 236.467 217.707 236.467C219.453 236.467 221.124 236.085 222.642 235.321C223.478 234.863 224.161 234.405 224.768 233.871C225.3 233.336 225.832 232.726 226.363 232.038C227.047 231.122 227.578 230.13 227.882 229.061C228.261 227.992 228.413 226.923 228.413 225.778C228.413 223.869 227.958 222.037 227.047 220.433C226.667 219.593 225.983 218.754 225.072 217.914C224.161 217.074 223.174 216.463 222.187 216.005C220.592 215.318 218.997 215.012 217.327 215.089H217.251C215.504 215.165 214.138 215.547 212.999 216.158C211.86 216.845 210.721 217.761 209.657 218.906C208.822 219.899 208.139 220.968 207.759 222.189C207.379 223.411 207.152 224.632 207.152 225.854C207.152 226.999 207.304 228.145 207.683 229.213L207.759 229.366ZM223.933 228.603C223.705 229.137 223.326 229.748 222.794 230.359C222.263 230.97 221.655 231.504 220.82 231.962C219.909 232.42 218.846 232.649 217.782 232.649C216.112 232.649 214.669 232.115 213.378 231.046C212.543 230.359 211.936 229.595 211.556 228.679C211.176 227.763 210.948 226.77 210.948 225.778C210.948 224.938 211.024 224.174 211.328 223.411C211.632 222.647 212.011 221.96 212.543 221.273L213.075 220.739C213.682 220.128 214.365 219.67 215.201 219.364C215.96 219.059 216.795 218.906 217.707 218.906C218.694 218.906 219.605 219.135 220.516 219.517C221.807 220.128 222.794 220.968 223.478 222.113C224.161 223.258 224.541 224.48 224.541 225.778C224.541 226.77 224.313 227.686 223.933 228.603Z" fill="#78C930"/>
<path fill-rule="evenodd" clip-rule="evenodd" d="M289.389 229.366C289.844 230.664 290.528 231.886 291.515 233.031C292.502 234.1 293.641 235.016 295.008 235.55C296.375 236.161 297.817 236.467 299.336 236.467C301.083 236.467 302.753 236.085 304.272 235.321C305.107 234.863 305.791 234.405 306.398 233.871C306.93 233.336 307.461 232.725 307.993 232.038C308.676 231.122 309.208 230.13 309.511 229.061C309.891 227.992 310.043 226.923 310.043 225.778C310.043 223.869 309.587 222.036 308.676 220.433C308.296 219.593 307.613 218.753 306.702 217.914C305.791 217.074 304.803 216.463 303.816 216.005C302.222 215.318 300.627 215.012 298.956 215.089H298.88C297.134 215.165 295.767 215.547 294.628 216.157C293.489 216.845 292.35 217.761 291.287 218.906C290.452 219.899 289.768 220.968 289.389 222.189C289.009 223.411 288.781 224.632 288.781 225.854C288.781 226.999 288.933 228.144 289.313 229.213L289.389 229.366ZM305.639 228.603C305.411 229.137 305.031 229.748 304.5 230.359C303.968 230.969 303.285 231.504 302.525 231.962C301.614 232.42 300.551 232.649 299.488 232.649C297.817 232.649 296.375 232.115 295.084 231.046C294.248 230.359 293.641 229.595 293.261 228.679C292.882 227.763 292.654 226.77 292.654 225.778C292.654 224.938 292.73 224.174 293.033 223.411C293.337 222.647 293.717 221.96 294.248 221.273L294.78 220.738C295.387 220.128 296.071 219.67 296.906 219.364C297.666 219.059 298.501 218.906 299.412 218.906C300.399 218.906 301.31 219.135 302.222 219.517C303.512 220.128 304.5 220.968 305.183 222.113C305.866 223.258 306.246 224.48 306.246 225.778C306.246 226.77 306.018 227.686 305.639 228.603ZM261.9 233.794C262.584 234.405 263.723 234.94 265.317 235.474C266.912 236.009 268.507 236.238 270.101 236.238C271.468 236.238 272.683 236.009 273.746 235.551C274.809 235.092 275.645 234.482 276.252 233.642C276.86 232.802 277.163 231.886 277.163 230.74C277.163 230.13 277.087 229.443 276.784 228.755C276.556 228.068 276.176 227.534 275.796 227.152C275.417 226.694 274.961 226.312 274.354 226.007C273.822 225.701 273.063 225.396 272.076 225.014C271.24 224.709 270.405 224.403 269.722 224.098C269.038 223.793 268.355 223.411 267.747 222.953C267.216 222.571 266.912 222.037 266.912 221.502C266.912 221.12 266.988 220.815 267.292 220.433C267.596 220.052 267.975 219.746 268.507 219.517C269.19 219.288 269.874 219.212 270.481 219.212C271.013 219.212 271.772 219.288 272.683 219.517C273.139 219.593 273.67 219.746 274.278 220.052C274.733 220.281 275.037 220.433 275.265 220.433C275.417 220.433 275.493 220.357 275.569 220.281L275.569 220.281C275.645 220.128 275.872 219.822 276.252 219.364C276.556 218.906 276.784 218.525 276.935 218.219C277.087 217.685 276.404 216.998 274.885 216.234C273.442 215.7 272 215.394 270.481 215.394H269.646C268.279 215.547 267.064 215.929 266.077 216.463C265.014 217.074 264.254 217.761 263.723 218.601C263.191 219.441 262.888 220.433 262.888 221.426C262.888 221.96 262.964 222.647 263.191 223.335C263.495 224.327 264.103 225.167 265.014 225.854C265.849 226.541 267.14 227.152 268.735 227.61C269.114 227.763 269.418 227.839 269.494 227.839C270.329 228.068 271.089 228.297 271.62 228.526C272.152 228.755 272.607 229.061 272.835 229.366C273.215 229.901 273.443 230.435 273.443 230.893C273.443 231.428 273.139 231.886 272.531 232.267C271.924 232.649 271.089 232.802 270.101 232.802C269.038 232.802 268.051 232.649 267.14 232.497C266.229 232.267 265.09 231.809 263.647 231.122C263.495 231.046 263.419 231.046 263.343 231.046C263.115 231.046 262.964 231.122 262.812 231.351C262.71 231.494 262.614 231.627 262.524 231.749L262.524 231.749L262.524 231.75C262.28 232.085 262.088 232.349 261.976 232.573C261.824 232.878 261.749 233.107 261.749 233.336C261.749 233.489 261.749 233.642 261.9 233.794ZM322.572 236.161C322.496 236.085 322.42 235.932 322.42 235.779V215.852C322.42 215.699 322.496 215.546 322.572 215.47C322.648 215.394 322.8 215.317 322.952 215.317H335.405C335.557 215.317 335.709 215.394 335.785 215.47C335.861 215.546 335.937 215.699 335.937 215.852V218.371C335.937 218.483 335.896 218.554 335.844 218.644C335.826 218.677 335.805 218.712 335.785 218.753C335.709 218.829 335.557 218.906 335.405 218.906H327.204C326.976 218.906 326.825 218.982 326.673 219.135C326.521 219.288 326.445 219.44 326.445 219.669V223.258C326.445 223.487 326.521 223.64 326.673 223.792C326.825 223.945 326.976 224.021 327.204 224.021H332.747C332.975 224.021 333.127 224.098 333.279 224.25C333.431 224.403 333.507 224.556 333.507 224.785V227.152C333.507 227.381 333.431 227.533 333.279 227.686C333.127 227.839 332.975 227.915 332.747 227.915H326.976C326.865 227.915 326.795 227.956 326.705 228.008C326.673 228.027 326.637 228.047 326.597 228.068C326.445 228.144 326.445 228.297 326.445 228.45V235.703C326.445 235.815 326.404 235.885 326.353 235.975C326.334 236.008 326.313 236.044 326.293 236.085C326.217 236.161 326.065 236.237 325.913 236.237H322.952C322.8 236.314 322.648 236.314 322.572 236.161ZM354.844 235.856C354.844 236.009 354.844 236.085 354.92 236.161C354.996 236.238 355.072 236.314 355.148 236.62H358.717C358.869 236.62 358.945 236.543 359.021 236.467C359.097 236.314 359.097 236.238 359.097 236.161V219.899C359.097 219.67 359.173 219.517 359.324 219.364C359.476 219.212 359.628 219.135 359.856 219.135H364.716C364.868 219.135 364.944 219.059 365.02 218.983C365.049 218.924 365.078 218.877 365.102 218.837C365.142 218.772 365.171 218.725 365.171 218.677V215.852C365.171 215.7 365.096 215.623 365.02 215.547L365.02 215.547L365.02 215.547C364.944 215.471 364.868 215.394 364.716 215.394H348.997C348.921 215.394 348.846 215.394 348.77 215.471C348.694 215.547 348.694 215.623 348.694 215.7V218.601C348.694 218.677 348.77 218.754 348.845 218.83L348.846 218.83L348.846 218.83C348.921 218.906 348.997 218.983 349.073 218.983H354.085C354.25 218.983 354.375 219.063 354.49 219.136C354.533 219.164 354.575 219.191 354.617 219.212C354.768 219.288 354.844 219.517 354.844 219.67V235.856ZM382.028 236.238C381.952 236.161 381.876 236.085 381.876 235.932L378.004 216.005V215.776C378.004 215.471 378.08 215.394 378.308 215.394H381.345C381.649 215.394 381.801 215.547 381.876 215.776L384.23 229.137C384.256 229.214 384.273 229.281 384.287 229.338C384.315 229.451 384.332 229.519 384.382 229.519C384.423 229.519 384.442 229.474 384.475 229.397C384.503 229.332 384.54 229.243 384.61 229.137C384.624 229.096 384.642 229.039 384.666 228.964C384.775 228.621 384.995 227.927 385.369 226.923L385.597 226.275L385.598 226.274L385.598 226.274C385.953 225.262 386.257 224.399 386.508 223.64L386.812 222.877L386.812 222.876C386.888 222.724 386.964 222.571 387.04 222.495C387.116 222.418 387.268 222.342 387.496 222.342H390.457C390.913 222.342 391.216 222.495 391.292 222.877C392.583 226.389 393.343 228.526 393.57 229.214C393.646 229.519 393.722 229.595 393.798 229.595C393.874 229.595 393.95 229.443 393.95 229.137C394.081 228.218 394.261 227.073 394.477 225.702C394.638 224.682 394.819 223.536 395.013 222.266C395.168 221.252 395.306 220.336 395.428 219.518C395.667 217.93 395.85 216.709 396 215.852C396 215.7 396.076 215.623 396.152 215.547C396.228 215.471 396.38 215.471 396.532 215.471H399.569C399.721 215.471 399.797 215.547 399.873 215.7C399.949 215.852 399.949 216.005 399.873 216.158L396.304 236.085C396.228 236.314 396.076 236.467 395.772 236.467H392.507C392.355 236.467 392.204 236.467 392.128 236.391C392.052 236.314 391.976 236.238 391.976 236.085C391.672 235.322 391.14 233.795 390.381 231.58C389.762 229.776 389.396 228.631 389.24 228.145L389.202 228.027C389.186 227.978 389.174 227.941 389.166 227.916C389.149 227.863 389.135 227.818 389.124 227.78L389.124 227.78C389.086 227.655 389.073 227.61 389.014 227.61C388.956 227.61 388.942 227.655 388.905 227.78L388.905 227.78C388.894 227.817 388.88 227.862 388.862 227.916C388.862 228.068 388.483 229.214 387.647 231.504C387.459 232.055 387.284 232.567 387.123 233.039L387.117 233.057L387.116 233.061C386.634 234.474 386.28 235.514 386.053 236.085C385.977 236.314 385.825 236.467 385.521 236.467H382.332C382.284 236.371 382.207 236.335 382.137 236.303C382.095 236.284 382.057 236.266 382.028 236.238ZM410.276 235.932C410.276 236.085 410.276 236.161 410.352 236.237C410.39 236.275 410.428 236.295 410.466 236.314C410.504 236.333 410.542 236.352 410.58 236.39H413.465C413.576 236.39 413.647 236.349 413.736 236.297L413.736 236.297C413.769 236.278 413.804 236.258 413.845 236.237L413.845 236.237C413.997 236.085 414.073 236.008 414.073 235.856L415.515 230.282C415.591 230.129 415.667 229.977 415.819 229.824C415.971 229.748 416.199 229.671 416.351 229.671H422.122C422.35 229.671 422.501 229.671 422.653 229.824C422.805 229.977 422.881 230.129 422.957 230.282L422.957 230.282L424.4 235.856C424.4 235.932 424.476 236.085 424.628 236.161C424.668 236.181 424.703 236.202 424.736 236.221L424.736 236.221C424.826 236.273 424.896 236.314 425.007 236.314H427.893C428.121 236.314 428.197 236.237 428.197 236.008V235.932L422.957 215.775C422.957 215.623 422.881 215.546 422.729 215.47C422.689 215.45 422.653 215.429 422.621 215.41V215.41C422.531 215.358 422.461 215.317 422.35 215.317H416.123C415.971 215.317 415.819 215.394 415.743 215.47V215.47C415.667 215.546 415.591 215.623 415.515 215.775L410.276 235.932ZM421.666 226.235C421.59 226.388 421.438 226.464 421.211 226.464H417.11C416.958 226.464 416.806 226.388 416.73 226.312C416.654 226.235 416.579 226.083 416.579 225.93V225.777L418.249 219.593C418.325 219.44 418.401 219.364 418.553 219.211C418.705 219.135 418.932 219.059 419.084 219.059H419.236C419.464 219.059 419.616 219.059 419.768 219.211C419.996 219.288 420.072 219.44 420.072 219.593L421.742 225.777C421.818 225.93 421.742 226.083 421.666 226.235ZM440.953 236.161C440.877 236.085 440.801 235.932 440.801 235.779V215.852C440.801 215.74 440.842 215.669 440.894 215.579V215.579L440.894 215.579C440.913 215.546 440.933 215.511 440.953 215.47C441.029 215.317 441.181 215.317 441.333 215.317H447.559C448.774 215.317 449.913 215.623 450.977 216.234C452.04 216.844 452.875 217.608 453.482 218.677C454.09 219.669 454.394 220.815 454.394 222.036C454.394 223.105 454.166 224.021 453.71 224.937C453.255 225.854 452.571 226.617 451.736 227.304C451.584 227.381 451.584 227.533 451.584 227.686V227.839V227.915L455.077 235.703C455.153 235.856 455.153 236.008 455.153 236.085C455.153 236.314 455.001 236.39 454.773 236.39H452.116C451.888 236.39 451.736 236.39 451.66 236.314C451.637 236.29 451.607 236.267 451.574 236.242C451.499 236.184 451.409 236.115 451.356 236.008L448.243 228.984C448.167 228.831 448.091 228.755 448.015 228.755C447.939 228.679 447.711 228.679 447.408 228.679H445.054C444.75 228.679 444.522 228.755 444.446 228.831C444.37 228.908 444.294 229.06 444.294 229.289V235.856C444.294 235.967 444.254 236.038 444.202 236.128C444.183 236.161 444.163 236.196 444.142 236.237C444.066 236.314 443.915 236.39 443.763 236.39H441.409C441.354 236.371 441.303 236.358 441.257 236.345C441.112 236.305 441.011 236.277 440.953 236.161ZM447.559 224.785C448.319 224.785 449.002 224.479 449.534 223.945C450.065 223.41 450.369 222.723 450.369 221.96C450.369 221.196 450.065 220.509 449.534 219.975C449.002 219.44 448.319 219.135 447.559 219.135H444.75C444.37 219.135 444.218 219.364 444.218 219.746V224.25C444.218 224.362 444.259 224.433 444.311 224.523C444.33 224.556 444.35 224.591 444.37 224.632C444.446 224.708 444.522 224.785 444.674 224.785H447.559ZM467.987 235.703C467.987 235.856 468.063 236.009 468.139 236.085C468.177 236.123 468.234 236.161 468.291 236.2C468.348 236.238 468.405 236.276 468.443 236.314H482.035C482.187 236.314 482.339 236.238 482.415 236.161C482.435 236.121 482.455 236.085 482.474 236.052C482.526 235.962 482.566 235.892 482.566 235.78V233.26C482.566 233.107 482.49 232.955 482.415 232.878C482.374 232.858 482.339 232.837 482.306 232.819C482.217 232.767 482.146 232.726 482.035 232.726H472.467C472.087 232.726 471.86 232.649 471.784 232.497L471.784 232.496C471.708 232.344 471.632 232.191 471.632 231.962V228.756C471.632 228.603 471.708 228.45 471.784 228.298L471.784 228.297C471.86 228.145 472.087 228.068 472.315 228.068H479.833C479.985 228.068 480.136 227.992 480.212 227.916C480.233 227.875 480.253 227.839 480.272 227.806C480.324 227.717 480.364 227.646 480.364 227.534V225.014C480.364 224.862 480.288 224.709 480.212 224.633C480.172 224.612 480.136 224.592 480.104 224.573C480.014 224.521 479.944 224.48 479.833 224.48H472.391H472.391C472.163 224.48 471.936 224.48 471.86 224.404C471.784 224.327 471.708 224.175 471.708 224.022V223.945V219.517C471.708 219.364 471.784 219.212 471.86 219.135C471.9 219.115 471.936 219.095 471.968 219.076C472.058 219.024 472.128 218.983 472.239 218.983H481.883C482.035 218.983 482.187 218.906 482.263 218.83C482.283 218.789 482.303 218.754 482.322 218.721C482.374 218.631 482.415 218.56 482.415 218.448V215.929C482.415 215.776 482.339 215.623 482.263 215.547C482.187 215.471 482.035 215.394 481.883 215.394H468.518C468.367 215.394 468.215 215.471 468.139 215.547C468.063 215.623 467.987 215.776 467.987 215.929V235.703Z" fill="#18563B"/>
<path fill-rule="evenodd" clip-rule="evenodd" d="M461.285 87.2029C455.211 84.4543 448.832 83.08 442.15 83.08C433.569 83.08 425.52 85.2942 418.382 89.7988C411.093 94.1508 405.246 100.182 400.993 107.665C396.741 115.147 394.539 123.393 394.539 132.173C394.539 140.953 396.741 149.199 400.993 156.681C405.246 164.164 411.093 170.195 418.382 174.547C425.672 178.975 433.721 181.19 442.302 181.19C448.68 181.19 454.755 179.968 460.45 177.525C466.145 175.082 471.233 171.646 475.637 167.218C476.396 166.53 477.08 166.225 477.839 166.225C478.674 166.225 478.902 166.454 478.978 166.53L479.054 166.607L479.13 166.683L482.851 169.89L490.748 177.067L490.824 177.143L490.9 177.219C491.583 177.678 491.887 178.288 491.887 179.128C491.887 179.434 491.811 179.663 491.583 179.892C485.357 186.687 477.915 192.108 469.41 195.849C460.906 199.666 451.794 201.575 442.226 201.575C429.924 201.575 418.534 198.521 408.207 192.337C397.88 186.229 389.603 177.754 383.528 167.141C383.179 166.614 382.874 166.041 382.545 165.424C382.445 165.237 382.343 165.046 382.237 164.851L380.263 161.11L378.213 164.774L377.985 165.156C377.909 165.271 377.852 165.385 377.795 165.5C377.738 165.614 377.681 165.729 377.605 165.843C371.607 176.074 363.406 184.32 353.23 190.352C343.055 196.383 331.741 199.437 319.667 199.437H303.569C302.962 199.437 302.506 199.208 302.05 198.826C301.671 198.445 301.519 198.063 301.519 197.529V188.977V180.121C301.519 179.586 301.595 179.205 301.823 178.899C301.898 178.746 301.974 178.67 302.05 178.594C302.126 178.517 302.202 178.441 302.354 178.365C302.401 178.318 302.448 178.299 302.513 178.275C302.553 178.259 302.6 178.241 302.658 178.212C302.734 178.136 302.734 178.136 302.81 178.136C302.862 178.123 302.912 178.109 302.96 178.097C303.194 178.035 303.393 177.983 303.645 177.983H319.743C328.096 177.983 335.841 175.921 342.751 171.799C349.661 167.752 355.205 162.102 359.305 155.154C363.406 148.13 365.456 140.419 365.456 132.02C365.456 123.622 363.406 115.91 359.305 108.886C355.281 101.938 349.661 96.3649 342.751 92.242C341.84 91.7076 340.853 91.1731 339.79 90.6387C333.639 87.5847 326.881 86.0577 319.743 86.0577H303.645C302.43 86.0577 301.291 86.5158 300.38 87.432C299.469 88.2718 299.013 89.4171 299.013 90.715V102.931C299.013 103.465 298.861 103.847 298.481 104.229C298.026 104.687 297.57 104.84 296.963 104.84H281.852H279.801L279.574 106.901C279.042 112.78 277.068 118.506 273.727 123.851L272.436 125.912L274.562 127.058C280.789 130.57 285.724 135.38 289.369 141.488C291.951 145.84 293.622 150.497 294.381 155.307C294.685 157.216 294.837 159.125 294.837 161.11C294.837 168.134 293.09 174.624 289.673 180.503C288.23 182.946 286.56 185.313 284.585 187.374C281.928 190.199 278.89 192.566 275.549 194.551C269.626 197.987 263.096 199.743 256.11 199.743H224.217V180.961H256.11C261.501 180.961 266.133 178.976 269.778 175.082C273.423 171.188 275.245 166.454 275.245 161.11C275.245 155.689 273.347 151.031 269.626 147.367C265.905 143.625 261.349 141.793 256.11 141.793H231.355V122.171H241.606C246.694 122.171 251.174 120.262 254.819 116.521C258.54 112.78 260.362 108.275 260.362 103.16C260.362 97.8919 258.464 93.3109 254.743 89.5698C251.022 85.8286 246.466 83.9199 241.227 83.9199H226.951C224.521 83.9199 222.319 84.7597 220.497 86.5158C218.598 88.2718 217.687 90.4096 217.687 92.9292V142.938H202.196V64.7561H241.379C248.365 64.7561 254.819 66.5121 260.666 69.9478C265.981 73.0782 270.31 77.2774 273.651 82.3929L277.827 88.8826V81.1713V66.8938C277.827 66.3594 277.979 65.9013 278.435 65.4432C279.042 64.9087 279.422 64.8324 279.726 64.8324H319.819C331.893 64.8324 343.207 67.8864 353.382 73.918C362.722 79.4152 370.392 86.7448 376.163 95.7541C376.846 96.7467 377.378 97.5865 377.833 98.4263C377.971 98.6106 378.08 98.8226 378.196 99.0457C378.272 99.1924 378.35 99.3438 378.441 99.4953L378.593 99.7243L380.643 103.389L382.617 99.7243C382.84 99.2204 383.103 98.7576 383.378 98.2756C383.478 98.1003 383.579 97.9225 383.68 97.7392C389.679 87.1266 398.032 78.6517 408.359 72.391C418.61 66.1303 430.076 63 442.302 63C452.097 63 461.437 64.9851 470.018 68.9553C478.598 72.9255 486.192 78.4227 492.419 85.3705C492.495 85.4469 492.57 85.5232 492.57 85.7523C492.57 86.0053 492.518 86.0487 492.457 86.0995C492.445 86.1101 492.432 86.1209 492.419 86.134L478.143 98.5027L478.067 98.579L477.991 98.6554C477.611 98.9608 477.459 98.9608 477.384 98.9608C477.308 98.9608 477.232 98.9608 477.156 98.8081L477.08 98.7318L477.004 98.6554C472.6 93.769 467.284 89.8752 461.285 87.2029ZM105.304 64.6793H192.097L192.249 64.832C192.325 64.9084 192.401 64.9847 192.401 65.2138V83.7668C192.401 83.9958 192.325 84.0722 192.249 84.1485C192.173 84.3012 192.097 84.3012 192.097 84.3012H154.965C152.991 84.3012 151.32 84.9884 149.953 86.3627C148.587 87.737 147.903 89.3403 147.903 91.1727V198.979V199.132C147.751 199.284 147.675 199.284 147.599 199.284H123.984H123.68V198.979V91.1727C123.68 89.264 122.921 87.5079 121.554 86.21C120.187 84.912 118.516 84.3012 116.618 84.3012H105.304L105.152 84.1485C105.076 84.0722 105 83.9958 105 83.7668V65.2138C105 64.9847 105.076 64.9084 105.152 64.832C105.228 64.6793 105.304 64.6793 105.304 64.6793Z" fill="#18563B"/>
<path d="M356.647 110.337C352.85 103.847 347.611 98.579 341.157 94.7615C340.397 94.3034 339.562 93.8453 338.651 93.3872C326.881 96.8993 316.326 104.076 308.884 113.696C306.986 116.139 305.315 118.659 303.873 121.331H314.427C314.959 121.331 315.339 121.713 315.339 122.247V141.793H324.147C324.679 141.793 325.058 142.175 325.058 142.709V152.787C325.058 153.322 324.679 153.704 324.147 153.704H314.731V159.812C314.731 160.346 314.352 160.728 313.82 160.728H307.138C306.606 160.728 306.227 160.346 306.227 159.812V153.093C306.227 152.558 306.606 152.177 307.138 152.177H313.213V143.931H297.114C297.038 145.305 296.962 146.679 296.962 148.13C296.962 150.344 297.114 152.558 297.342 154.773C297.342 154.925 297.342 155.002 297.342 155.154C297.646 157.139 297.798 159.124 297.798 161.11C297.798 168.668 295.899 175.692 292.255 182.029C291.04 184.167 289.521 186.229 287.926 188.137H298.481V179.968C298.481 178.823 298.785 177.83 299.316 176.99C299.544 176.685 299.772 176.456 300 176.227C300.228 175.998 300.455 175.845 300.759 175.616C300.987 175.463 301.215 175.387 301.443 175.234C301.519 175.234 301.519 175.158 301.595 175.158C302.202 174.929 302.885 174.776 303.645 174.776H319.743C327.488 174.776 334.702 172.867 341.232 168.974C347.687 165.156 352.926 159.888 356.723 153.398C360.52 146.908 362.494 139.655 362.494 131.791C362.342 124.08 360.444 116.827 356.647 110.337Z" fill="#A1D96E"/>
</svg>
